<mxfile host="app.diagrams.net" agent="Mozilla/5.0 (Windows NT 10.0; Win64; x64) AppleWebKit/537.36 (KHTML, like Gecko) Chrome/128.0.0.0 Safari/537.36 OPR/114.0.0.0" border="50" scale="3" compressed="false" locked="false" version="24.8.4">
  <diagram name="Blank" id="YmL12bMKpDGza6XwsDPr">
    <mxGraphModel dx="1380" dy="347" grid="0" gridSize="10" guides="1" tooltips="1" connect="1" arrows="1" fold="1" page="0" pageScale="1" pageWidth="827" pageHeight="1169" background="none" math="1" shadow="0">
      <root>
        <mxCell id="X5NqExCQtvZxIxQ7pmgY-0" />
        <mxCell id="1" parent="X5NqExCQtvZxIxQ7pmgY-0" />
        <mxCell id="E554dVAxD02PI6T3BY6a-4" value="" style="edgeStyle=orthogonalEdgeStyle;rounded=0;orthogonalLoop=1;jettySize=auto;html=1;" parent="1" source="E554dVAxD02PI6T3BY6a-2" target="E554dVAxD02PI6T3BY6a-3" edge="1">
          <mxGeometry relative="1" as="geometry" />
        </mxCell>
        <mxCell id="E554dVAxD02PI6T3BY6a-2" value="asustnp_integration.outbox&lt;br&gt;&lt;b&gt;id_fixation&lt;/b&gt;" style="rounded=0;whiteSpace=wrap;html=1;" parent="1" vertex="1">
          <mxGeometry x="59" y="753" width="185" height="60" as="geometry" />
        </mxCell>
        <mxCell id="E554dVAxD02PI6T3BY6a-13" value="" style="edgeStyle=orthogonalEdgeStyle;rounded=0;orthogonalLoop=1;jettySize=auto;html=1;" parent="1" source="E554dVAxD02PI6T3BY6a-3" target="E554dVAxD02PI6T3BY6a-12" edge="1">
          <mxGeometry relative="1" as="geometry" />
        </mxCell>
        <mxCell id="E554dVAxD02PI6T3BY6a-3" value="asustnp_integration.asust_fixation_info&lt;br&gt;&lt;b&gt;fixation_side_id&lt;/b&gt;" style="rounded=0;whiteSpace=wrap;html=1;" parent="1" vertex="1">
          <mxGeometry x="315" y="753" width="288" height="60" as="geometry" />
        </mxCell>
        <mxCell id="E554dVAxD02PI6T3BY6a-12" value="asustnp_integration.asust_fixation_brakeshoes" style="rounded=0;whiteSpace=wrap;html=1;" parent="1" vertex="1">
          <mxGeometry x="665" y="753" width="281" height="60" as="geometry" />
        </mxCell>
      </root>
    </mxGraphModel>
  </diagram>
</mxfile>
